SplineFontDB: 3.0
FontName: Hominin
FullName: Hominin
FamilyName: Hominin
Weight: Regular
Copyright: Copyright (c) 2018, y6nH
UComments: "2018-1-13: Created with FontForge (http://fontforge.org)"
Version: 001.000
ItalicAngle: 0
UnderlinePosition: -100
UnderlineWidth: 50
Ascent: 800
Descent: 200
InvalidEm: 0
LayerCount: 2
Layer: 0 0 "Back" 1
Layer: 1 0 "Fore" 0
XUID: [1021 337 1418023252 32656]
StyleMap: 0x0000
FSType: 0
OS2Version: 0
OS2_WeightWidthSlopeOnly: 0
OS2_UseTypoMetrics: 1
CreationTime: 1515866660
ModificationTime: 1517699837
PfmFamily: 17
TTFWeight: 400
TTFWidth: 5
LineGap: 90
VLineGap: 0
OS2TypoAscent: 0
OS2TypoAOffset: 1
OS2TypoDescent: 0
OS2TypoDOffset: 1
OS2TypoLinegap: 90
OS2WinAscent: 0
OS2WinAOffset: 1
OS2WinDescent: 0
OS2WinDOffset: 1
HheadAscent: 0
HheadAOffset: 1
HheadDescent: 0
HheadDOffset: 1
OS2Vendor: 'PfEd'
MarkAttachClasses: 1
DEI: 91125
LangName: 1033
Encoding: ISO8859-1
UnicodeInterp: none
NameList: AGL For New Fonts
DisplaySize: -48
AntiAlias: 1
FitToEm: 0
WinInfo: 0 12 11
BeginPrivate: 0
EndPrivate
Grid
487 0 m 5
 29 0 l 5
 29 799.685546875 l 5
 491 799.685546875 l 5
 486 709 l 5
 137 708.685546875 l 5
 137 418.685546875 l 5
 418 418.685546875 l 5
 418 337 l 5
 136 336.685546875 l 5
 137 90.685546875 l 5
 492 90.685546875 l 5
 487 0 l 5
EndSplineSet
TeXData: 1 0 0 346030 173015 115343 649069 1048576 115343 783286 444596 497025 792723 393216 433062 380633 303038 157286 324010 404750 52429 2506097 1059062 262144
BeginChars: 257 47

StartChar: n
Encoding: 110 110 0
Width: 649
VWidth: 0
Flags: W
HStem: 0 21G<60 168 481 589> 535 89<330 454.409>
VStem: 60 108<0 449.097 489 616> 481 108<0 510.534>
LayerCount: 2
Fore
SplineSet
168 489 m 1
 209 559 342 624 437 624 c 0
 552 624 589 542 589 497 c 2
 589 0 l 1
 481 0 l 1
 481 455 l 2
 481 482 468 535 389 535 c 0
 263 535 196 464 168 424 c 1
 168 0 l 1
 60 0 l 1
 60 619 l 1
 162 616 l 1
 168 489 l 1
EndSplineSet
Validated: 1
EndChar

StartChar: h
Encoding: 104 104 1
Width: 649
VWidth: 0
Flags: W
HStem: 0 21G<60 168 481 589> 535 81<303.036 445.387> 865 20G<60 162>
VStem: 60 108<0 458.019 487 882> 481 108<0 499.747>
LayerCount: 2
Fore
SplineSet
162 882 m 1
 168 750 l 1
 168 487 l 1
 204 548 307 616 399 616 c 0
 528 616 589 521 589 452 c 2
 589 0 l 1
 481 0 l 1
 481 455 l 2
 481 482 453 535 374 535 c 0
 252 535 193 469 168 429 c 1
 168 0 l 1
 60 0 l 1
 60 885 l 1
 162 882 l 1
EndSplineSet
Validated: 1
EndChar

StartChar: m
Encoding: 109 109 2
Width: 1069
VWidth: 0
Flags: W
HStem: 0 21G<60 168 481 589 901 1009> 535 89<330 454.473 748.533 874.473>
VStem: 60 108<0 448.726 489 616> 481 108<0 450.913 491 510.534> 901 108<0 510.534>
LayerCount: 2
Fore
SplineSet
588 484 m 1025,0,-1
168 424 m 1,1,-1
 168 0 l 1,2,-1
 60 0 l 1,3,-1
 60 619 l 1,4,-1
 162 616 l 1,5,-1
 168 489 l 1,6,-1
 209 560 342 624 437 624 c 0,9,-1
 553 624 589 542 589 497 c 2,12,-1
 589 491 l 1,13,-1
 632 561 763 624 857 624 c 0,16,-1
 973 624 1009 542 1009 497 c 2,19,-1
 1009 0 l 1,20,-1
 901 0 l 1,21,-1
 901 455 l 2,22,-1
 901 482 888 535 809 535 c 0,25,-1
 685 535 617 466 589 426 c 1,28,-1
 589 0 l 1,29,-1
 481 0 l 1,30,-1
 481 455 l 2,31,-1
 481 482 468 535 389 535 c 0,34,-1
 263 535 196 463 168 424 c 1,1,-1
EndSplineSet
Validated: 1
EndChar

StartChar: i
Encoding: 105 105 3
Width: 286
VWidth: 0
Flags: W
HStem: -13 70<202.705 258.734> 705 95<60 162>
VStem: 60 108<93.4491 616 705 800>
LayerCount: 2
Fore
SplineSet
162 800 m 1
 168 705 l 1
 60 705 l 1
 60 803 l 1
 162 800 l 1
60 180 m 6
 60 616 l 1
 168 616 l 1
 168 155 l 6
 168 77 232 57 269 57 c 5
 268 28 257 -13 257 -13 c 5
 256 -13 l 6
 159 -13 60 23 60 180 c 6
EndSplineSet
Validated: 1
EndChar

StartChar: o
Encoding: 111 111 4
Width: 612
VWidth: 0
Flags: W
HStem: -17 90<224.451 387.407> 550 85<225.632 390.661>
VStem: 16 101<198.526 427.256> 497 99<200.814 433.335>
LayerCount: 2
Fore
SplineSet
117 319 m 0
 117 175 195 73 307 73 c 0
 405 73 497 162 497 319 c 0
 497 455 419 550 307 550 c 0
 202 550 117 455 117 319 c 0
16 319 m 0
 16 491 146 635 306 635 c 0
 476 635 596 491 596 319 c 0
 596 121 456 -17 306 -17 c 0
 136 -17 16 141 16 319 c 0
EndSplineSet
Validated: 1
EndChar

StartChar: l
Encoding: 108 108 5
Width: 228
VWidth: 0
Flags: W
HStem: 0 21G<60 168> 865 20G<60 162>
VStem: 60 108<0 882>
LayerCount: 2
Fore
SplineSet
162 882 m 1
 168 750 l 5
 168 0 l 5
 60 0 l 5
 60 885 l 1
 162 882 l 1
EndSplineSet
Validated: 1
EndChar

StartChar: d
Encoding: 100 100 6
Width: 605
VWidth: 0
Flags: HW
HStem: -5 90<202.409 388.715> 539 77<199.103 323.582>
VStem: 15 96<190.73 433.775> 437 108<2 53 115.861 479.021 499 884>
LayerCount: 2
Fore
SplineSet
443 884 m 1
 545 887 l 1
 545 2 l 1
 437 2 l 1
 437 53 l 1
 398 13 351 -5 305 -5 c 0
 152 -5 15 73 15 326 c 0
 15 458 87 616 217 616 c 0
 218 616 219 616 220 616 c 0
 311 616 403 564 437 499 c 1
 437 752 l 1
 443 884 l 1
437 461 m 1
 410 486 344 539 265 539 c 0
 176 539 111 442 111 321 c 0
 111 109 222 85 305 85 c 0
 349 85 397 100 437 130 c 1
 437 461 l 1
EndSplineSet
EndChar

StartChar: p
Encoding: 112 112 7
Width: 635
VWidth: 0
Flags: W
HStem: -199 21G<60 162> -11 77<292.966 405.897> 536 91<219.398 409.528> 600 20G<60 165>
VStem: 60 108<-195 120 138.48 503.296 566 615> 494 96<174.957 435.358>
LayerCount: 2
Fore
SplineSet
162 -195 m 1xec
 60 -199 l 1
 60 620 l 1xdc
 165 615 l 1
 165 598 168 583 168 566 c 1
 207 606 254 627 300 627 c 0
 453 627 590 548 590 290 c 0
 590 147 518 -11 388 -11 c 0
 387 -11 386 -11 385 -11 c 0
 294 -11 201 55 168 120 c 1
 168 -63 l 1
 162 -195 l 1xec
300 536 m 0xec
 256 536 208 519 168 489 c 1
 168 158 l 1
 195 133 261 66 340 66 c 0
 429 66 494 163 494 295 c 0
 494 512 400 536 300 536 c 0xec
EndSplineSet
Validated: 1
EndChar

StartChar: q
Encoding: 113 113 8
Width: 635
VWidth: 0
Flags: W
HStem: -199 21G<473 575> -11 77<229.103 342.034> 536 91<225.472 415.602> 600 20G<470 575>
VStem: 45 96<175.394 435.358> 467 108<-195 120 138.48 503.296 566 615>
LayerCount: 2
Fore
SplineSet
473 -195 m 1xdc
 467 -63 l 1
 467 120 l 1
 434 55 341 -11 250 -11 c 0
 249 -11 248 -11 247 -11 c 0
 117 -11 45 148 45 290 c 0
 45 548 182 627 335 627 c 0xec
 381 627 428 606 467 566 c 1
 467 583 470 603 470 620 c 5
 575 615 l 1
 575 -199 l 1
 473 -195 l 1xdc
467 158 m 1
 467 489 l 1
 427 519 379 536 335 536 c 0
 235 536 141 512 141 295 c 0
 141 164 206 66 295 66 c 0
 374 66 440 133 467 158 c 1
EndSplineSet
Validated: 1
EndChar

StartChar: b
Encoding: 98 98 9
Width: 634
VWidth: 0
Flags: W
HStem: -10 91<219.398 409.528> 0 21G<60 168> 537 77<283.281 407.192> 866 20G<60 162>
VStem: 60 108<0 51 113.704 477.021 497 882> 494 96<180.369 431.775>
LayerCount: 2
Fore
SplineSet
162 882 m 1x7c
 168 750 l 1
 168 497 l 1
 202 562 296 614 388 614 c 0
 518 614 590 456 590 324 c 0
 590 69 453 -10 300 -10 c 0xbc
 254 -10 207 11 168 51 c 1
 168 34 168 17 168 0 c 1
 60 0 l 1
 60 886 l 1
 162 882 l 1x7c
168 459 m 1
 168 128 l 1
 208 98 256 81 300 81 c 0
 400 81 494 105 494 319 c 0
 494 440 429 537 340 537 c 0
 261 537 195 484 168 459 c 1
EndSplineSet
Validated: 1
EndChar

StartChar: c
Encoding: 99 99 10
Width: 536
VWidth: 0
Flags: W
HStem: -5 97<219.91 413.685> 531 91<228.674 407.686>
VStem: 25 102<193.823 410.734>
LayerCount: 2
Fore
SplineSet
488 470 m 1
 448 500 384 531 314 531 c 3
 204 531 127 444 127 288 c 3
 127 177 208 92 288 92 c 3
 464 92 507 143 507 143 c 1
 507 30 386 -5 298 -5 c 3
 175 -5 25 90 25 274 c 3
 25 524 170 622 314 622 c 3
 380 622 450 586 489 546 c 1
 488 470 l 1
489 546 m 1025
488 470 m 1025
EndSplineSet
Validated: 1
EndChar

StartChar: r
Encoding: 114 114 11
Width: 564
VWidth: 0
Flags: W
HStem: 0 21G<60 168> 535 86<311.013 456.005>
VStem: 60 108<0 459.774 490 616>
LayerCount: 2
Fore
SplineSet
468 501 m 1
 455 520 432 535 389 535 c 0
 254 535 193 471 168 431 c 1
 168 0 l 1
 60 0 l 1
 60 619 l 1
 162 616 l 1
 168 490 l 1
 207 560 327 621 409 621 c 0
 492 621 536 589 562 541 c 1
 468 501 l 1
EndSplineSet
Validated: 1
EndChar

StartChar: a
Encoding: 97 97 12
Width: 611
VWidth: 0
Flags: W
HStem: -7 77<198.019 325.918> -1 21G<449 551> 536 91<231.395 391.602>
VStem: 21 96<174.152 409.665> 443 108<2 121 135.962 503.296 566 617>
LayerCount: 2
Fore
SplineSet
224 -7 m 31xb8
 82 -7 21 156 21 293 c 0
 21 483 110 627 311 627 c 0
 357 627 404 606 443 566 c 1
 443 583 443 600 443 617 c 1
 551 617 l 1
 551 -1 l 1x78
 449 2 l 1
 444 121 l 1
 411 52 323 -7 224 -7 c 31xb8
443 156 m 1
 443 489 l 1
 403 519 355 536 311 536 c 0
 211 536 117 448 117 298 c 0
 117 167 171 70 271 70 c 4xb8
 350 70 416 128 443 156 c 1
EndSplineSet
Validated: 1
EndChar

StartChar: j
Encoding: 106 106 13
Width: 231
VWidth: 0
Flags: W
HStem: -202 5<-9.27832 -3.91858> 705 99<63 165>
VStem: 63 108<-94.9104 616 705 804>
LayerCount: 2
Fore
SplineSet
165 804 m 1
 171 705 l 1
 63 705 l 1
 63 807 l 1
 165 804 l 1
171 0 m 6
 171 -107 100 -202 -9 -202 c 4
 -15 -202 -17 -197 -15 -197 c 4
 7 -197 63 -181 63 -44 c 4
 63 176 63 396 63 616 c 1
 171 616 l 1
 171 0 l 6
EndSplineSet
Validated: 1
EndChar

StartChar: t
Encoding: 116 116 14
Width: 412
VWidth: 0
Flags: W
HStem: -2 74<290.752 343.542> 523 93<45 145 253 357> 784 20G<145 247>
VStem: 145 108<109.295 527 616 801>
LayerCount: 2
Fore
SplineSet
247 801 m 1
 253 669 l 1
 253 616 l 1
 357 616 l 1
 357 523 l 1
 253 528 l 1
 253 170 l 2
 253 92 317 72 354 72 c 1
 353 43 342 -2 342 -2 c 1
 340 -2 l 2
 244 -2 145 28 145 195 c 2
 145 527 l 1
 45 523 l 1
 45 616 l 1
 145 616 l 1
 145 804 l 1
 247 801 l 1
EndSplineSet
Validated: 1
EndChar

StartChar: f
Encoding: 102 102 15
Width: 385
VWidth: 0
Flags: WO
HStem: 1 21G<134 242> 529 86<31 134 242 343> 800 81<271.953 348.624>
VStem: 134 108<1 534 615 770.598>
LayerCount: 2
Fore
SplineSet
134 685 m 2
 134 852 249 881 346 881 c 2
 348 881 l 1
 348 881 353 829 354 800 c 1
 317 800 242 793 242 710 c 2
 242 615 l 1
 343 615 l 1
 343 529 l 1
 242 534 l 1
 242 1 l 1
 134 1 l 1
 134 534 l 1
 31 529 l 1
 31 615 l 1
 134 615 l 1
 134 685 l 2
EndSplineSet
Validated: 1
EndChar

StartChar: v
Encoding: 118 118 16
Width: 524
VWidth: 0
Flags: W
HStem: 599 20G<31.4688 132 393 492.594>
LayerCount: 2
Fore
SplineSet
393 616 m 1
 500 619 l 1
 263 -21 l 1
 24 619 l 1
 132 616 l 1
 263 220 l 1
 393 616 l 1
EndSplineSet
Validated: 1
EndChar

StartChar: s
Encoding: 115 115 17
Width: 562
VWidth: 0
Flags: W
HStem: -5 97<145.9 388.496> 531 94<158.607 377.804>
VStem: 29 102<412.507 505.528> 434 101<128.312 222.536>
LayerCount: 2
Fore
SplineSet
505 535 m 1
 501 512 492 482 482 458 c 1
 482 458 409 531 275 531 c 3
 185 531 131 521 131 450 c 3
 131 385 271 365 317 350 c 0
 367 334 535 310 535 192 c 3
 535 70 451 -5 253 -5 c 3
 99 -5 24 114 24 114 c 1
 27 149 30 147 39 186 c 1
 39 186 103 92 249 92 c 3
 315 92 434 94 434 181 c 3
 434 255 268 275 229 287 c 0
 185 301 29 321 29 469 c 3
 29 534 79 625 251 625 c 3
 404 625 505 535 505 535 c 1
EndSplineSet
Validated: 1
EndChar

StartChar: u
Encoding: 117 117 18
Width: 648
VWidth: 0
Flags: W
HStem: 0 89<194.346 319> 604 20G<60 167 481 588>
VStem: 60 107<114.296 624> 481 107<8 135 174.366 624>
LayerCount: 2
Fore
SplineSet
481 135 m 1
 440 64 307 0 212 0 c 0
 96 0 60 82 60 127 c 2
 60 624 l 1
 167 624 l 1
 167 169 l 2
 167 142 181 89 260 89 c 0
 386 89 453 160 481 199 c 1
 481 624 l 1
 588 624 l 1
 588 5 l 1
 487 8 l 1
 481 135 l 1
EndSplineSet
Validated: 1
EndChar

StartChar: w
Encoding: 119 119 19
Width: 881
VWidth: 0
Flags: W
HStem: 599 20G<39.5472 143 739 841.547>
LayerCount: 2
Fore
SplineSet
403 611 m 1025,0,-1
403 611 m 1,1,-1
 479 611 l 1,2,-1
 612 216 l 1,3,-1
 739 616 l 1,4,-1
 849 619 l 1,5,-1
 612 -17 l 1,6,-1
 438 471 l 1,7,-1
 272 -17 l 1,8,-1
 32 619 l 1,9,-1
 143 616 l 1,10,-1
 272 216 l 1,11,-1
 403 611 l 1,1,-1
EndSplineSet
Validated: 1
EndChar

StartChar: g
Encoding: 103 103 20
Width: 616
VWidth: 0
Flags: W
HStem: -203 72<174.437 366.832> -1 78<201.485 361.16> 536 91<236.395 396.602>
VStem: 26 96<175.135 409.665> 54 4<-25.7746 -11.0022> 448 107<-34.1335 121 136.711 503.296 566 617>
LayerCount: 2
Fore
SplineSet
448 566 m 1xf4
 448 583 448 600 448 617 c 1
 556 617 l 1
 556 617 555 357 555 127 c 3
 555 -103 463 -203 278 -203 c 3
 154 -203 54 -121 54 -16 c 3
 54 -14 57 -11 58 -11 c 1
 58 -12 l 2xec
 58 -78 170 -131 273 -131 c 3
 373 -131 447 -80 447 38 c 5
 449 121 l 1
 405 30 340 -1 274 -1 c 0
 152 -1 26 123 26 293 c 0
 26 483 115 627 316 627 c 0
 362 627 409 606 448 566 c 1xf4
448 156 m 1
 448 489 l 1
 408 519 360 536 316 536 c 0
 216 536 122 448 122 298 c 0xf4
 122 167 176 77 276 77 c 0
 355 77 421 128 448 156 c 1
EndSplineSet
Validated: 1
EndChar

StartChar: k
Encoding: 107 107 21
Width: 584
VWidth: 0
Flags: W
HStem: 0 21G<60 168 412.158 568> 865 20G<60 162>
VStem: 60 108<0 349 411 882>
LayerCount: 2
Fore
SplineSet
506 616 m 1
 256 382 l 1
 568 0 l 1
 427 0 l 1
 168 349 l 1
 168 0 l 1
 60 0 l 1
 60 885 l 1
 162 882 l 1
 168 750 l 1
 168 411 l 1
 364 616 l 1
 506 616 l 1
EndSplineSet
Validated: 1
EndChar

StartChar: e
Encoding: 101 101 22
Width: 548
VWidth: 0
Flags: W
HStem: -5 94<215.91 404.69> 246 84<200.439 382.941> 531 91<224.323 396.439>
VStem: 21 102<193.475 407.982> 437 91<378.466 492.491>
LayerCount: 2
Fore
SplineSet
437 435 m 0
 437 517 356 531 310 531 c 0
 215 531 144 466 127 348 c 1
 200 334 273 330 296 330 c 0
 400 330 437 392 437 435 c 0
124 315 m 1
 123 306 123 297 123 288 c 0
 123 177 204 89 284 89 c 0
 460 89 518 145 518 145 c 5
 518 43 382 -5 294 -5 c 0
 171 -5 21 90 21 274 c 0
 21 524 166 622 310 622 c 0
 398 622 528 587 528 450 c 0
 528 395 499 246 297 246 c 0
 232 246 170 276 124 315 c 1
EndSplineSet
Validated: 1
EndChar

StartChar: x
Encoding: 120 120 23
Width: 518
VWidth: 0
Flags: W
HStem: 0 21G<14 144.087 376 504> 599 20G<31.8182 128 390 485.403>
LayerCount: 2
Fore
SplineSet
390 614 m 1
 498 619 l 1
 304 311 l 1
 504 0 l 1
 388 0 l 1
 250 230 l 1
 134 0 l 1
 14 0 l 1
 202 311 l 1
 20 619 l 1
 128 616 l 1
 250 389 l 1
 390 614 l 1
EndSplineSet
Validated: 1
EndChar

StartChar: y
Encoding: 121 121 24
Width: 618
VWidth: 0
Flags: W
HStem: -203 72<177.437 382.968> -1 82<219.56 385.269> 600 20G<54 153.689>
VStem: 54 95<171.536 614> 57 4<-25.7746 -11.0022> 451 107<-44.2561 121 136.688 617>
LayerCount: 2
Fore
SplineSet
54 614 m 1xf4
 154 620 l 1
 154 620 149 362 149 298 c 0xf4
 149 186 188 81 284 81 c 3
 397 81 424 133 451 161 c 1
 451 617 l 1
 559 617 l 1
 559 617 558 357 558 127 c 3
 558 -103 488 -203 281 -203 c 3
 157 -203 57 -121 57 -16 c 3
 57 -14 60 -11 61 -11 c 1
 61 -12 l 2xec
 61 -78 173 -131 276 -131 c 3
 376 -131 452 -99 452 37 c 2
 452 121 l 2
 452 18 349 -1 282 -1 c 3
 122 -1 54 123 54 293 c 2
 54 614 l 1xf4
EndSplineSet
Validated: 1
EndChar

StartChar: z
Encoding: 122 122 25
Width: 554
VWidth: 0
Flags: W
HStem: 0 92<241.75 508> 0 84<203 474.25> 520 96<48 358>
LayerCount: 2
Fore
SplineSet
48 616 m 1x60
 514 619 l 1
 203 84 l 1x60
 513 92 l 1
 508 0 l 1xa0
 40 0 l 1
 358 526 l 1
 43 520 l 1
 48 616 l 1x60
EndSplineSet
Validated: 1
EndChar

StartChar: comma
Encoding: 44 44 27
Width: 220
VWidth: 0
Flags: HW
HStem: 3 95<50.0451 86>
VStem: 50 108<3 97.9578>
LayerCount: 2
Fore
SplineSet
149 98 m 1
 149 98 158 40 158 3 c 1
 158 -45 128.08203125 -98 73 -98 c 0
 73 -98 107.041015625 -73.279296875 107.041015625 -43.72265625 c 3
 107.041015625 -6 84 0 84 0 c 0
 84 0 80.0625 3 72.029296875 3 c 3
 64.6865234375 3 50 0 50 0 c 1
 50 101 l 1
 149 98 l 1
EndSplineSet
EndChar

StartChar: period
Encoding: 46 46 28
Width: 296
VWidth: 0
Flags: HW
HStem: 3 95<50 152>
VStem: 50 108<3 98>
LayerCount: 2
Fore
SplineSet
152 98 m 1
 156 3 l 1
 50 3 l 1
 50 101 l 1
 152 98 l 1
EndSplineSet
EndChar

StartChar: bar
Encoding: 124 124 29
Width: 228
VWidth: 0
Flags: W
VStem: 60 108<-93 882>
LayerCount: 2
Fore
SplineSet
168 882 m 1
 168 588 168 201 168 -93 c 5
 132 -93 96 -93 60 -93 c 5
 60 882 l 1
 168 882 l 1
EndSplineSet
Validated: 1
EndChar

StartChar: I
Encoding: 73 73 30
Width: 269
VWidth: 0
Flags: W
HStem: 0 104<28 81 189 241> 696 104<28 81 189 241>
VStem: 28 213<0 104 696 800> 81 108<104 696>
LayerCount: 2
Fore
SplineSet
189 696 m 5xd0
 189 104 l 1xd0
 241 108 l 1
 241 0 l 1xe0
 189 0 l 1
 81 0 l 1xd0
 28 0 l 1
 28 108 l 1xe0
 81 104 l 1
 81 696 l 5xd0
 28 692 l 1
 28 800 l 1xe0
 81 800 l 1
 189 800 l 1xd0
 241 800 l 1
 241 692 l 1xe0
 189 696 l 5xd0
EndSplineSet
Validated: 1
EndChar

StartChar: H
Encoding: 72 72 31
Width: 668
VWidth: 0
Flags: W
HStem: 0 21G<49 157 529 637> 328 91<157 529> 780 20G<49 157 529 637>
VStem: 49 108<0 328 419 800> 529 108<0 328 419 800>
LayerCount: 2
Fore
SplineSet
529 328 m 1
 156 328 l 1
 157 0 l 1
 49 0 l 1
 49 800 l 1
 157 800 l 1
 157 419 l 1
 529 419 l 1
 529 800 l 1
 637 800 l 1
 637 0 l 1
 529 0 l 1
 529 328 l 1
EndSplineSet
Validated: 1
EndChar

StartChar: A
Encoding: 65 65 32
Width: 664
VWidth: 0
Flags: W
HStem: 0 21G<30 143.621 523.725 638> 306 94<244 412> 780 20G<240.6 402.05>
LayerCount: 2
Fore
SplineSet
434 306 m 1
 224 306 l 1
 138 0 l 1
 30 0 l 1
 246 800 l 1
 396 800 l 1
 638 0 l 1
 530 0 l 1
 434 306 l 1
318 725 m 1
 244 400 l 1
 412 400 l 1
 318 725 l 1
EndSplineSet
Validated: 1
EndChar

StartChar: B
Encoding: 66 66 33
Width: 574
VWidth: 0
Flags: W
HStem: -5 85<100.57 373.645> 727 78<156.223 336.977>
VStem: 45 111<83.7383 336.786 435 718.535> 391 103<540.387 679.101> 451 94<159.41 302.723>
LayerCount: 2
Fore
SplineSet
156 435 m 1xf0
 156 435 391 443 391 623 c 3
 391 692 310 727 274 727 c 3
 218 727 156 715 156 715 c 1
 156 435 l 1xf0
156 85 m 1
 156 85 229 80 299 80 c 3
 379 80 451 153 451 227 c 3xe8
 451 324 376 362 293 362 c 3
 253 362 156 330 156 330 c 1
 156 85 l 1
365 428 m 1
 479 427 545 378 545 216 c 3xe8
 545 36 383 -5 290 -5 c 3
 165 -5 45 0 45 0 c 1
 45 104 l 1
 45 696 l 1
 39 787 l 1
 155 800 l 1
 168 803 244 805 281 805 c 3
 401 805 494 765 494 625 c 3xf0
 494 478 365 428 365 428 c 1
EndSplineSet
Validated: 1
EndChar

StartChar: D
Encoding: 68 68 34
Width: 587
VWidth: 0
Flags: W
HStem: 0 111<162 302.439> 701 102<160.037 331.179>
VStem: 49 113<111 698.938> 470 100<259.579 539.32>
LayerCount: 2
Fore
SplineSet
161 694 m 9
 162 111 l 1
 438 111 470 276 470 382 c 3
 470 574 402 701 223 701 c 3
 176 701 161 694 161 694 c 9
227 -3 m 3
 207 -3 157 0 157 0 c 1
 49 0 l 1
 49 690 l 1
 40 793 l 1
 159 800 l 1
 159 800 246 803 264 803 c 3
 427 803 570 666 570 403 c 3
 570 166 473 -3 227 -3 c 3
EndSplineSet
Validated: 1
EndChar

StartChar: C
Encoding: 67 67 35
Width: 590
VWidth: 0
Flags: W
HStem: -5 103<232.844 409.774> 711 97<240.603 418.511>
VStem: 6 120<247.542 547.986>
LayerCount: 2
Fore
SplineSet
522 656 m 1
 482 686 383 711 313 711 c 3
 186 711 126 545 126 407 c 3
 126 306 149 98 312 98 c 3
 492 98 566 192 566 192 c 1
 566 191 l 0
 566 64 394 -5 306 -5 c 3
 91 -5 6 187 6 406 c 3
 6 629 135 808 303 808 c 3
 369 808 484 772 523 732 c 1
 522 656 l 1
523 732 m 1025
522 656 m 1025
EndSplineSet
Validated: 1
EndChar

StartChar: O
Encoding: 79 79 36
Width: 671
VWidth: 0
Flags: W
HStem: -5 106<266.763 418.135> 708 100<264.548 407.194>
VStem: 30 114<267.221 545.512> 528 113<248.538 545.512>
LayerCount: 2
Fore
SplineSet
336 708 m 3
 200 708 144 533 144 407 c 3
 144 305 186 101 342 101 c 3
 505 101 528 305 528 407 c 3
 528 533 470 708 336 708 c 3
336 808 m 3
 508 808 641 632 641 406 c 3
 641 190 557 -5 342 -5 c 3
 130 -5 30 190 30 406 c 3
 30 632 165 808 336 808 c 3
EndSplineSet
Validated: 1
EndChar

StartChar: N
Encoding: 78 78 37
Width: 788
VWidth: 0
Flags: W
HStem: 782 20G<29 135 653 759>
VStem: 29 108<2 619> 651 108<2 619>
LayerCount: 2
Fore
SplineSet
388 415 m 1
 653 798 l 1
 759 802 l 1
 759 -2 l 1
 651 2 l 1
 651 619 l 1
 388 248 l 1
 137 619 l 5
 137 2 l 1
 29 -2 l 1
 29 802 l 1
 135 798 l 1
 388 415 l 1
EndSplineSet
Validated: 1
EndChar

StartChar: E
Encoding: 69 69 38
Width: 541
VWidth: 0
Flags: W
HStem: 0 91<137 487> 337 82<137 418> 709 91<137 486>
VStem: 29 108<91 337 419 709>
LayerCount: 2
Fore
SplineSet
487 0 m 1
 29 0 l 1
 29 800 l 1
 491 800 l 1
 486 709 l 1
 137 709 l 1
 137 419 l 1
 418 419 l 1
 418 337 l 1
 136 337 l 1
 137 91 l 1
 492 91 l 1
 487 0 l 1
EndSplineSet
Validated: 1
EndChar

StartChar: F
Encoding: 70 70 39
Width: 538
VWidth: 0
Flags: W
HStem: 0 21G<29 137> 336 83<137 418> 709 91<137 486>
VStem: 29 108<0 336 419 709>
LayerCount: 2
Fore
SplineSet
137 709 m 1
 137 419 l 1
 418 419 l 1
 418 336 l 1
 136 336 l 1
 137 0 l 1
 29 0 l 1
 29 800 l 1
 491 800 l 5
 486 709 l 1
 137 709 l 1
EndSplineSet
Validated: 1
EndChar

StartChar: G
Encoding: 71 71 40
Width: 707
VWidth: 0
Flags: W
HStem: -5 103<243.744 395.661> 328 100<596 671.42> 328 81<338 460.684> 711 97<263.74 455.883>
VStem: 9 112<272.441 531.6> 482 114<149.593 333> 482 102<3 82 149.593 191.75>
LayerCount: 2
Fore
SplineSet
584 -6 m 17xba
 482 3 l 1
 482 82 l 1xba
 482 82 414 -5 303 -5 c 3
 49 -5 9 282 9 406 c 3
 9 616 141 808 323 808 c 3
 535 808 594 684 594 634 c 0
 591 614 l 1
 507 693 470 711 335 711 c 3
 219 711 121 558 121 411 c 3
 121 291 174 98 316 98 c 3
 439 98 482 176 482 176 c 1
 483 334 l 1
 338 328 l 1
 338 409 l 1xbc
 671 428 l 1xdc
 677 328 l 25
 596 333 l 1xbc
 584 -6 l 17xba
EndSplineSet
Validated: 1
EndChar

StartChar: M
Encoding: 77 77 41
Width: 686
VWidth: 0
Flags: W
HStem: 0 21G<518.857 637> 780 20G<49 167.392 529 637>
VStem: 49 108<2 616> 528 109<198 798>
LayerCount: 2
Fore
SplineSet
531 0 m 1
 157 616 l 1
 157 2 l 1
 49 -2 l 1
 49 800 l 1
 155 800 l 1
 528 198 l 1
 529 798 l 1
 637 802 l 1
 637 0 l 1
 602 0 566 0 531 0 c 1
EndSplineSet
Validated: 1
EndChar

StartChar: L
Encoding: 76 76 42
Width: 510
VWidth: 0
Flags: W
HStem: 0 102<137 487> 783 20G<29 136.029>
VStem: 29 108<102 798>
LayerCount: 2
Fore
SplineSet
29 798 m 25
 136 803 l 25
 137 102 l 25
 492 102 l 25
 487 0 l 25
 29 0 l 25
 29 798 l 25
EndSplineSet
Validated: 1
EndChar

StartChar: K
Encoding: 75 75 43
Width: 566
VWidth: 0
Flags: W
HStem: 0 21G<29 136 396.046 551> 787 20G<29 137.123>
VStem: 29 107<0 346 481 799>
LayerCount: 2
Fore
SplineSet
29 799 m 25
 137 807 l 1
 139 481 l 1
 391 797 l 1
 505 797 l 1
 212 414 l 1
 551 0 l 1
 412 0 l 25
 136 346 l 25
 136 0 l 25
 29 0 l 25
 29 799 l 25
EndSplineSet
Validated: 1
EndChar

StartChar: quotesingle
Encoding: 39 39 44
Width: 132
VWidth: 0
Flags: HW
HStem: 3 95<12.0451 48>
VStem: 12 108<3 97.9578>
LayerCount: 2
Fore
SplineSet
118 797 m 1
 118 797 120 740 120 703 c 1
 90.5927734375 703 82 647 82 647 c 1
 82 647 74 603 68 603 c 0
 61 603 52 647 52 647 c 1
 52 647 42 699 12 699 c 1
 12 801 l 1
 118 797 l 1
EndSplineSet
EndChar

StartChar: semicolon
Encoding: 59 59 45
Width: 196
VWidth: 0
Flags: HW
HStem: 3 95<26.0451 62>
VStem: 26 108<3 97.9578>
LayerCount: 2
Fore
SplineSet
118 417 m 5
 123 322 l 5
 18 322 l 5
 16 420 l 5
 118 417 l 5
125 98 m 5
 125 98 134 40 134 3 c 5
 134 -45 104.08203125 -98 49 -98 c 4
 49 -98 83.041015625 -73.279296875 83.041015625 -43.72265625 c 7
 83.041015625 -6 60 0 60 0 c 4
 60 0 56.0625 3 48.029296875 3 c 7
 40.6865234375 3 26 0 26 0 c 5
 24 101 l 5
 125 98 l 5
EndSplineSet
EndChar

StartChar: colon
Encoding: 58 58 46
Width: 196
VWidth: 0
Flags: HW
LayerCount: 2
Fore
SplineSet
118 417 m 1
 123 322 l 1
 18 322 l 1
 16 420 l 1
 118 417 l 1
125 98 m 1
 134 0 l 25
 26 0 l 1
 24 101 l 1
 125 98 l 1
EndSplineSet
EndChar
